<svg id="visual" viewBox="0 0 900 600" width="900" height="600" xmlns="http://www.w3.org/2000/svg" xmlns:xlink="http://www.w3.org/1999/xlink" version="1.1"><rect x="0" y="0" width="900" height="600" fill="#FFDB67"></rect><path d="M0 280L18.8 295.5C37.7 311 75.3 342 112.8 348.2C150.3 354.3 187.7 335.7 225.2 330.3C262.7 325 300.3 333 337.8 342.2C375.3 351.3 412.7 361.7 450.2 360.2C487.7 358.7 525.3 345.3 562.8 342.8C600.3 340.3 637.7 348.7 675.2 355.3C712.7 362 750.3 367 787.8 356.2C825.3 345.3 862.7 318.7 881.3 305.3L900 292L900 601L881.3 601C862.7 601 825.3 601 787.8 601C750.3 601 712.7 601 675.2 601C637.7 601 600.3 601 562.8 601C525.3 601 487.7 601 450.2 601C412.7 601 375.3 601 337.8 601C300.3 601 262.7 601 225.2 601C187.7 601 150.3 601 112.8 601C75.3 601 37.7 601 18.8 601L0 601Z" fill="#ffffff" stroke-linecap="round" stroke-linejoin="miter"></path></svg>