<svg id="visual" viewBox="0 0 900 600" width="900" height="600" xmlns="http://www.w3.org/2000/svg" xmlns:xlink="http://www.w3.org/1999/xlink" version="1.1"><rect x="0" y="0" width="900" height="600" fill="#FFDB67"></rect><defs><linearGradient id="grad1_0" x1="33.3%" y1="0%" x2="100%" y2="100%"><stop offset="20%" stop-color="#ffdb67" stop-opacity="1"></stop><stop offset="80%" stop-color="#ffdb67" stop-opacity="1"></stop></linearGradient></defs><defs><linearGradient id="grad2_0" x1="0%" y1="0%" x2="66.7%" y2="100%"><stop offset="20%" stop-color="#ffdb67" stop-opacity="1"></stop><stop offset="80%" stop-color="#ffdb67" stop-opacity="1"></stop></linearGradient></defs><g transform="translate(900, 0)"><path d="M0 432.7C-32.3 428.4 -64.6 424.2 -94.3 413.4C-124.1 402.6 -151.2 385.2 -177.5 368.5C-203.7 351.8 -229.2 335.6 -253.8 318.2C-278.3 300.8 -302.1 282.1 -327.6 261.2C-353.1 240.3 -380.4 217.2 -389.8 187.7C-399.2 158.3 -390.7 122.5 -394.8 90.1C-399 57.8 -415.8 28.9 -432.7 0L0 0Z" fill="#00aaff"></path></g><g transform="translate(0, 600)"><path d="M0 -432.7C33.3 -432.8 66.7 -432.9 96.3 -421.8C125.9 -410.7 151.7 -388.4 178.3 -370.3C205 -352.2 232.4 -338.3 253.1 -317.4C273.9 -296.5 287.9 -268.6 306.5 -244.4C325.1 -220.2 348.3 -199.7 362.2 -174.4C376.1 -149.1 380.7 -119.1 390.9 -89.2C401.1 -59.4 416.9 -29.7 432.7 0L0 0Z" fill="#00aaff"></path></g></svg>