<svg id="visual" viewBox="0 0 960 540" width="960" height="540" xmlns="http://www.w3.org/2000/svg" xmlns:xlink="http://www.w3.org/1999/xlink" version="1.1"><rect x="0" y="0" width="960" height="540" fill="#ffc900"></rect><path d="M0 372L13.3 370.8C26.7 369.7 53.3 367.3 80 375.7C106.7 384 133.3 403 160 426.3C186.7 449.7 213.3 477.3 240 478.3C266.7 479.3 293.3 453.7 320 447C346.7 440.3 373.3 452.7 400 443.3C426.7 434 453.3 403 480 407.3C506.7 411.7 533.3 451.3 560 462.7C586.7 474 613.3 457 640 434.5C666.7 412 693.3 384 720 391.8C746.7 399.7 773.3 443.3 800 455.3C826.7 467.3 853.3 447.7 880 449C906.7 450.3 933.3 472.7 946.7 483.8L960 495L960 541L946.7 541C933.3 541 906.7 541 880 541C853.3 541 826.7 541 800 541C773.3 541 746.7 541 720 541C693.3 541 666.7 541 640 541C613.3 541 586.7 541 560 541C533.3 541 506.7 541 480 541C453.3 541 426.7 541 400 541C373.3 541 346.7 541 320 541C293.3 541 266.7 541 240 541C213.3 541 186.7 541 160 541C133.3 541 106.7 541 80 541C53.3 541 26.7 541 13.3 541L0 541Z" fill="#FFFFFF" stroke-linecap="round" stroke-linejoin="miter"></path></svg>