<svg id="visual" viewBox="0 0 960 540" width="960" height="540" xmlns="http://www.w3.org/2000/svg" xmlns:xlink="http://www.w3.org/1999/xlink" version="1.1"><rect x="0" y="0" width="960" height="540" fill="#FFDB67"></rect><path d="M0 326L13.3 328.8C26.7 331.7 53.3 337.3 80 348C106.7 358.7 133.3 374.3 160 375.7C186.7 377 213.3 364 240 354.3C266.7 344.7 293.3 338.3 320 344.7C346.7 351 373.3 370 400 381.3C426.7 392.7 453.3 396.3 480 398.2C506.7 400 533.3 400 560 389.5C586.7 379 613.3 358 640 351.8C666.7 345.7 693.3 354.3 720 362C746.7 369.7 773.3 376.3 800 364.8C826.7 353.3 853.3 323.7 880 316.3C906.7 309 933.3 324 946.7 331.5L960 339L960 541L946.7 541C933.3 541 906.7 541 880 541C853.3 541 826.7 541 800 541C773.3 541 746.7 541 720 541C693.3 541 666.7 541 640 541C613.3 541 586.7 541 560 541C533.3 541 506.7 541 480 541C453.3 541 426.7 541 400 541C373.3 541 346.7 541 320 541C293.3 541 266.7 541 240 541C213.3 541 186.7 541 160 541C133.3 541 106.7 541 80 541C53.3 541 26.7 541 13.3 541L0 541Z" fill="#FFFFFF" stroke-linecap="round" stroke-linejoin="miter"></path></svg>