<svg id="visual" viewBox="0 0 1980 1080" width="1980" height="1080" xmlns="http://www.w3.org/2000/svg" xmlns:xlink="http://www.w3.org/1999/xlink" version="1.1"><rect x="0" y="0" width="1980" height="1080" fill="#ffc900"></rect><path d="M0 745L27.5 742.7C55 740.3 110 735.7 165 752.3C220 769 275 807 330 853.5C385 900 440 955 495 957.2C550 959.3 605 908.7 660 895.5C715 882.3 770 906.7 825 887.8C880 869 935 807 990 815.8C1045 824.7 1100 904.3 1155 927C1210 949.7 1265 915.3 1320 870.2C1375 825 1430 769 1485 784.7C1540 800.3 1595 887.7 1650 911.8C1705 936 1760 897 1815 899.8C1870 902.7 1925 947.3 1952.5 969.7L1980 992L1980 1081L1952.5 1081C1925 1081 1870 1081 1815 1081C1760 1081 1705 1081 1650 1081C1595 1081 1540 1081 1485 1081C1430 1081 1375 1081 1320 1081C1265 1081 1210 1081 1155 1081C1100 1081 1045 1081 990 1081C935 1081 880 1081 825 1081C770 1081 715 1081 660 1081C605 1081 550 1081 495 1081C440 1081 385 1081 330 1081C275 1081 220 1081 165 1081C110 1081 55 1081 27.5 1081L0 1081Z" fill="#FFFFFF" stroke-linecap="round" stroke-linejoin="miter"></path></svg>